PathFileType	4	(X/Y/Z)	9_1_47_p1_0-158.trc
DataRate	CameraRate	NumFrames	NumMarkers	Units	OrigDataRate	OrigDataStartFrame	OrigNumFrames
60.0	60.0	5	27	m	60.0	39	159
Frame#	Time	RHip			RKnee			RAnkle			RBigToe			RSmallToe			RHeel			LHip			LKnee			LAnkle			LBigToe			LSmallToe			LHeel			Neck			Head			Nose			RShoulder			RElbow			RWrist			RThumb			RIndex			RPinky			LShoulder			LElbow			LWrist			LThumb			LIndex			LPinky			
		X1	Y1	Z1	X2	Y2	Z2	X3	Y3	Z3	X4	Y4	Z4	X5	Y5	Z5	X6	Y6	Z6	X7	Y7	Z7	X8	Y8	Z8	X9	Y9	Z9	X10	Y10	Z10	X11	Y11	Z11	X12	Y12	Z12	X13	Y13	Z13	X14	Y14	Z14	X15	Y15	Z15	X16	Y16	Z16	X17	Y17	Z17	X18	Y18	Z18	X19	Y19	Z19	X20	Y20	Z20	X21	Y21	Z21	X22	Y22	Z22	X23	Y23	Z23	X24	Y24	Z24	X25	Y25	Z25	X26	Y26	Z26	X27	Y27	Z27	
39	0.65	0.31471983111526175	0.5722433698703178	1.1616118966954603	0.2831995435570926	0.6676557882337173	1.5322039190976893	0.29398898596081985	0.7175331505451114	1.8944517009125383	0.28009931779760455	0.4698788987485081	1.8907693556177276	0.3464524865182035	0.5689835753284912	1.9287392880385619	0.2811960849388027	0.7489133948425151	1.9508954311560638	0.11407715956693061	0.5716811332766288	1.1635585274738058	0.11903072863578626	0.653143043051957	1.542209123919367	0.09606990213606274	0.6836980367031539	1.891590071258993	0.1261078014669785	0.4547928072285344	1.9008591383870277	0.06727479605400538	0.475368041550541	1.8825181384846001	0.09602861929362773	0.7833493238504834	1.9899592434773425	0.21371025740272453	0.5626570475024091	0.604956468695589	0.21800890839815595	0.536874808879269	0.34604857461850314	0.2083363467339395	0.47170898325024374	0.49615705767003926	0.3707576749188268	0.5650000352850393	0.6874599943212906	0.4154586452578285	0.49439362999404546	0.8851689021414135	0.2363862043885627	0.33234639000912963	0.9241400744762787	0.13577994274129182	0.36392196079761663	0.958582903541187	0.12785806374386438	0.317318443133074	0.9901187177289216	0.1549102166492013	0.322032691358132	1.016431221045225	0.04178385555281535	0.5459171800399826	0.6813133060358185	-0.00962387140743539	0.5143282766025136	0.8910517495493507	0.08582837145588741	0.33071378737421164	1.024431551435619	0.1529133715898869	0.25443055247478474	1.0099786129183697	0.13463089033590825	0.23633546874384279	1.045515181781439	0.1152324680244108	0.2655042969646329	1.0998356424618545
40	0.6666666666666666	0.3160175743948844	0.5709354717145577	1.1524506493041509	0.28407764537090574	0.6667297146272725	1.5275495305636229	0.29783476612431725	0.732467815851195	1.9015205205569907	0.2804754976019449	0.467761827381825	1.8946887510737098	0.3427013047162084	0.5546814140777458	1.9218733016338307	0.2853009901473381	0.766410093008641	1.9588104308828314	0.11749396286021223	0.586192032930834	1.1535366540230065	0.12481359316559008	0.6385122036929294	1.527135391571947	0.09684788827225567	0.6855128294763146	1.8972434632008925	0.12154737995503268	0.4525279782612735	1.8998876268408504	0.0672470613794969	0.475335621443878	1.882485759714761	0.09309644896194554	0.7790948130739803	1.9829197293807617	0.21364868713430932	0.5628114811698797	0.6051452002772539	0.21801742657073075	0.5367577467580538	0.3460666234948582	0.20609821332860043	0.4591511056947497	0.49929400851446165	0.37061941165885437	0.5653376826169011	0.6874683840159627	0.4185310272214537	0.48140633087013535	0.882159116371207	0.23340022176872122	0.31995513849153284	0.9093583532039641	0.11625637321524111	0.3436227397511947	0.9236956891790354	0.1071462466181439	0.30102768479423125	0.9406653085844776	0.1451918229323654	0.30813501435558105	0.9770237444005703	0.0416944612392146	0.5444022011062832	0.6772059881417933	-0.009096559787597496	0.5139832670318228	0.8864394298849082	0.10291742633495378	0.3184691540361154	1.0201744899158725	0.162722119258197	0.2516153449719345	0.9969471970066849	0.1594164342593766	0.21363624542440907	1.0197741697055587	0.1704522923408233	0.23611821736712546	1.0735260098105082
41	0.6833333333333333	0.3121573112567308	0.5566644275148706	1.1448309269718173	0.2842052037891015	0.6666897711141418	1.5275820048975646	0.29786033773191295	0.7326128341782594	1.9017152062078435	0.28055517747361386	0.46757527928525183	1.8944822591772954	0.34183496226646987	0.5529645236197193	1.9166901184840879	0.2891849059917199	0.7827590135169172	1.9669008238012888	0.11753560735962403	0.5862900161738273	1.1531940521155988	0.12424729514756941	0.636199568314229	1.522043914428899	0.09675025294752247	0.685648855879853	1.8973029306520806	0.12595531578169955	0.4516808864618601	1.8904345662726483	0.0679628205758878	0.4733263008391916	1.8859877667185134	0.09289391276848488	0.7784615153460651	1.9829954537532426	0.21369929374288113	0.5624290807425169	0.6050984490879114	0.22239412778649062	0.5233380680839974	0.3456733710362777	0.21331824816117056	0.45689518955778313	0.4989940154492577	0.37011435745874255	0.5636353132942472	0.6834200269181293	0.41871649147544193	0.48016538991298613	0.8778507783621573	0.22109715615225103	0.31890403663753963	0.8895196541787964	0.09634531432865064	0.3440337314856925	0.8747570635749621	0.09724536226366191	0.28954871723370246	0.9126146809143829	0.12475237739052172	0.2993179667788934	0.9399026510007936	0.05342544604626146	0.5168473145345251	0.6739373937624744	-0.0035435543854255925	0.5002155315244234	0.8834919388805749	0.11301590374948627	0.3291022155810972	1.0181950262672257	0.1817907472600523	0.2778745761853668	1.0023667002125856	0.18235676633805703	0.2657069834883969	1.0188032536345182	0.18786111198737557	0.27992184021689526	1.0700873319076427
42	0.7	0.31606627865241366	0.5428659149264982	1.1360834304105105	0.28960932047214666	0.6687755379764665	1.5197511203680607	0.297445778544263	0.7346064071860299	1.8979939115953932	0.2805648669053181	0.4679301792346205	1.8946918534684112	0.3427879760793552	0.5552131414329905	1.9220492148212878	0.2888900706697317	0.7847668149705931	1.9630411108476973	0.11343334269204065	0.5718992078647352	1.139785303093352	0.12580192218236436	0.6373217780057149	1.5220635119740056	0.09374833201171594	0.6707996364867448	1.8899499170800957	0.1269464942688564	0.45398021270651057	1.8963807413645717	0.06737951171684005	0.4751691602857912	1.8822331373130152	0.09300275878233422	0.7781986830061938	1.9825968993676688	0.213685945284308	0.5623472549857078	0.6051483587907048	0.21817698101559477	0.5367194993173605	0.34265089604762117	0.2138005499011177	0.4581851110776694	0.5025933850926583	0.3699141013106361	0.5633950074410657	0.682962258894279	0.41036945212398535	0.4677450663551169	0.8792440693216355	0.20295484804887612	0.32759974918984874	0.8713867315203451	0.07315969257121102	0.40559474895678393	0.871859094485951	0.08983015535914511	0.3268649569490802	0.8827462413836187	0.1140024713685447	0.312411849249747	0.9243325654364026	0.05359053082912505	0.5140964287827164	0.6736444111223847	-0.0014237806950141132	0.5101835959423385	0.8816421445837601	0.12433689930002122	0.3416054978801014	1.0058034743667346	0.19055554356052534	0.2650415505469413	0.9679859118847931	0.1949219160186071	0.26485191745064735	0.9918960578115282	0.19471629624527534	0.2628764214192239	1.0376662561356056
43	0.7166666666666667	0.31629299282294665	0.5435191201508606	1.1274255897445085	0.2897183284771509	0.6683439620314497	1.5194210785963362	0.29737885561482386	0.7343899869678869	1.8978235399347227	0.28057836613082277	0.46762720343258635	1.8945142892302478	0.34281866292910573	0.5553837659001462	1.922033638633069	0.2852136394437929	0.7661384401532599	1.9586677766677745	0.1125136232471781	0.5712864335482589	1.130799148950153	0.1251457239951008	0.6352812774308265	1.5170114719797314	0.0959145195162786	0.6835627868657459	1.8915068745284407	0.12701382643282613	0.45383859396701753	1.8962972018866622	0.0675430442365963	0.47486332037255863	1.8819660006173016	0.0928563266747363	0.7777664565197667	1.9827016011053358	0.2137453976750955	0.5624615822800252	0.6051665447455516	0.21808594766693618	0.5371225969452172	0.3458843468755542	0.21379192705330635	0.45842332143936937	0.5025712149349656	0.3665726990220545	0.579769171979067	0.6853158912838974	0.40689430323864717	0.481337394004536	0.8783856765003847	0.20429690016996324	0.336836194595589	0.8478832414314227	0.0662932360665671	0.37287006308689435	0.8419301163801582	0.07073807802528075	0.32969888344386994	0.8441179192743653	0.10249601076571448	0.27605035057190297	0.8865321963897578	0.05905667565170874	0.4998972239454901	0.6722831377983738	1.8575624299530563e-05	0.4724228612864888	0.8871299554325678	0.14200104516737835	0.346211310395016	0.9854622936153996	0.19488041981161303	0.2483773286494687	0.9214174298591776	0.20658319765654676	0.2599715830816642	0.9617172073191214	0.19700568694193774	0.277939374682767	1.0134216715826976
